<svg width="18" height="17" viewBox="0 0 18 17" fill="none" xmlns="http://www.w3.org/2000/svg">
<path d="M9.00033 14.875C8.10566 14.1119 7.27638 13.2753 6.52116 12.3739C5.38783 11.0203 4.04199 9.00438 4.04199 7.08338C4.0415 6.10231 4.33206 5.14314 4.8769 4.32727C5.42174 3.5114 6.19637 2.87549 7.10275 2.50003C8.00913 2.12458 9.00652 2.02644 9.9687 2.21804C10.9309 2.40965 11.8146 2.88238 12.508 3.57642C12.9697 4.03603 13.3356 4.58263 13.5846 5.1846C13.8336 5.78657 13.9607 6.43195 13.9587 7.08338C13.9587 9.00438 12.6128 11.0203 11.4795 12.3739C10.7243 13.2753 9.89499 14.1119 9.00033 14.875ZM9.00033 4.95838C8.43674 4.95838 7.89624 5.18226 7.49772 5.58078C7.09921 5.97929 6.87533 6.51979 6.87533 7.08338C6.87533 7.64696 7.09921 8.18747 7.49772 8.58598C7.89624 8.9845 8.43674 9.20838 9.00033 9.20838C9.56391 9.20838 10.1044 8.9845 10.5029 8.58598C10.9014 8.18747 11.1253 7.64696 11.1253 7.08338C11.1253 6.51979 10.9014 5.97929 10.5029 5.58078C10.1044 5.18226 9.56391 4.95838 9.00033 4.95838Z" fill="white"/>
</svg>
