<svg width="11" height="16" viewBox="0 0 11 16" fill="none" xmlns="http://www.w3.org/2000/svg">
<g clip-path="url(#clip0_659_316)">
<path d="M2.78214 11.4588C2.53321 11.2042 2.66297 11.276 2.06256 11.1116C1.79014 11.0369 1.55066 10.8934 1.33409 10.7214L0.0344316 13.9804C-0.0913237 14.2959 0.143572 14.6387 0.476437 14.6258L1.98579 14.5669L3.02391 15.6884C3.25308 15.9357 3.65527 15.8586 3.78102 15.5431L5.27204 11.8042C4.96152 11.9812 4.61691 12.0849 4.26055 12.0849C3.70196 12.0849 3.17717 11.8625 2.78214 11.4588ZM10.9657 13.9804L9.66603 10.7214C9.44946 10.8937 9.20998 11.0369 8.93756 11.1116C8.33399 11.2769 8.46634 11.2048 8.21798 11.4588C7.82295 11.8625 7.29787 12.0849 6.73928 12.0849C6.38292 12.0849 6.03832 11.9809 5.72779 11.8042L7.21881 15.5431C7.34457 15.8586 7.74704 15.9357 7.97592 15.6884L9.01433 14.5669L10.5237 14.6258C10.8565 14.6387 11.0914 14.2956 10.9657 13.9804ZM7.53392 10.7958C7.97162 10.3403 8.02175 10.3795 8.64509 10.2058C9.04298 10.0948 9.35407 9.77102 9.46064 9.35677C9.67491 8.52473 9.61933 8.62522 10.204 8.01643C10.4953 7.71321 10.609 7.27112 10.5025 6.85686C10.2885 6.02542 10.2882 6.14143 10.5025 5.30911C10.609 4.89485 10.4953 4.45276 10.204 4.14954C9.61933 3.54075 9.67491 3.64095 9.46064 2.80921C9.35407 2.39495 9.04298 2.07122 8.64509 1.96018C7.84644 1.73724 7.94269 1.79554 7.35746 1.18645C7.06613 0.883232 6.64131 0.764579 6.24342 0.875615C5.44506 1.09827 5.55649 1.09856 4.7567 0.875615C4.35881 0.764579 3.93399 0.882939 3.64266 1.18645C3.058 1.79524 3.15425 1.73724 2.35532 1.96018C1.95743 2.07122 1.64633 2.39495 1.53977 2.80921C1.32579 3.64095 1.38107 3.54075 0.796411 4.14954C0.505083 4.45276 0.391072 4.89485 0.497921 5.30911C0.711906 6.13997 0.712192 6.02395 0.497921 6.85657C0.391359 7.27083 0.505083 7.71292 0.796411 8.01643C1.38107 8.62522 1.3255 8.52473 1.53977 9.35677C1.64633 9.77102 1.95743 10.0948 2.35532 10.2058C2.99641 10.3845 3.04425 10.3564 3.4662 10.7958C3.84519 11.1905 4.43558 11.2611 4.89105 10.9663C5.07318 10.8481 5.28447 10.7853 5.5002 10.7853C5.71594 10.7853 5.92722 10.8481 6.10936 10.9663C6.56454 11.2611 7.15493 11.1905 7.53392 10.7958ZM2.79761 5.98997C2.79761 4.43636 4.00761 3.17688 5.50006 3.17688C6.99251 3.17688 8.20251 4.43636 8.20251 5.98997C8.20251 7.54358 6.99251 8.80306 5.50006 8.80306C4.00761 8.80306 2.79761 7.54358 2.79761 5.98997Z" fill="#FEC706"/>
</g>
<defs>
<clipPath id="clip0_659_316">
<rect width="11" height="15" fill="white" transform="translate(0 0.835388)"/>
</clipPath>
</defs>
</svg>
