<svg width="12" height="16" viewBox="0 0 12 16" fill="none" xmlns="http://www.w3.org/2000/svg">
<g clip-path="url(#clip0_659_326)">
<path d="M3.28214 11.4588C3.03321 11.2042 3.16297 11.276 2.56256 11.1116C2.29014 11.0369 2.05066 10.8934 1.83409 10.7214L0.534432 13.9804C0.408676 14.2959 0.643572 14.6387 0.976437 14.6258L2.48579 14.5669L3.52391 15.6884C3.75308 15.9357 4.15527 15.8586 4.28102 15.5431L5.77204 11.8042C5.46152 11.9812 5.11691 12.0849 4.76055 12.0849C4.20196 12.0849 3.67717 11.8625 3.28214 11.4588ZM11.4657 13.9804L10.166 10.7214C9.94946 10.8937 9.70998 11.0369 9.43756 11.1116C8.83399 11.2769 8.96634 11.2048 8.71798 11.4588C8.32295 11.8625 7.79787 12.0849 7.23928 12.0849C6.88292 12.0849 6.53832 11.9809 6.22779 11.8042L7.71881 15.5431C7.84457 15.8586 8.24704 15.9357 8.47592 15.6884L9.51433 14.5669L11.0237 14.6258C11.3565 14.6387 11.5914 14.2956 11.4657 13.9804ZM8.03392 10.7958C8.47162 10.3403 8.52175 10.3795 9.14509 10.2058C9.54298 10.0948 9.85407 9.77102 9.96064 9.35677C10.1749 8.52473 10.1193 8.62522 10.704 8.01643C10.9953 7.71321 11.109 7.27112 11.0025 6.85686C10.7885 6.02542 10.7882 6.14143 11.0025 5.30911C11.109 4.89485 10.9953 4.45276 10.704 4.14954C10.1193 3.54075 10.1749 3.64095 9.96064 2.80921C9.85407 2.39495 9.54298 2.07122 9.14509 1.96018C8.34644 1.73724 8.44269 1.79554 7.85746 1.18645C7.56613 0.883232 7.14131 0.764579 6.74342 0.875615C5.94506 1.09827 6.05649 1.09856 5.2567 0.875615C4.85881 0.764579 4.43399 0.882939 4.14266 1.18645C3.558 1.79524 3.65425 1.73724 2.85532 1.96018C2.45743 2.07122 2.14633 2.39495 2.03977 2.80921C1.82579 3.64095 1.88107 3.54075 1.29641 4.14954C1.00508 4.45276 0.891072 4.89485 0.997921 5.30911C1.21191 6.13997 1.21219 6.02395 0.997921 6.85657C0.891359 7.27083 1.00508 7.71292 1.29641 8.01643C1.88107 8.62522 1.8255 8.52473 2.03977 9.35677C2.14633 9.77102 2.45743 10.0948 2.85532 10.2058C3.49641 10.3845 3.54425 10.3564 3.9662 10.7958C4.34519 11.1905 4.93558 11.2611 5.39105 10.9663C5.57318 10.8481 5.78447 10.7853 6.0002 10.7853C6.21594 10.7853 6.42722 10.8481 6.60936 10.9663C7.06454 11.2611 7.65493 11.1905 8.03392 10.7958ZM3.29761 5.98997C3.29761 4.43636 4.50761 3.17688 6.00006 3.17688C7.49251 3.17688 8.70251 4.43636 8.70251 5.98997C8.70251 7.54358 7.49251 8.80306 6.00006 8.80306C4.50761 8.80306 3.29761 7.54358 3.29761 5.98997Z" fill="#B1B1B1"/>
</g>
<defs>
<clipPath id="clip0_659_326">
<rect width="11" height="15" fill="white" transform="translate(0.5 0.835388)"/>
</clipPath>
</defs>
</svg>
